<?xml version="1.0" encoding="UTF-8"?>
<svg id="Layer_1" data-name="Layer 1" xmlns="http://www.w3.org/2000/svg" xmlns:xlink="http://www.w3.org/1999/xlink" viewBox="0 0 422.36 160">
  <defs>
    <style>
      .cls-1 {
        fill: url(#linear-gradient-8);
      }

      .cls-2 {
        fill: url(#linear-gradient-7);
      }

      .cls-3 {
        fill: url(#linear-gradient-5);
      }

      .cls-4 {
        fill: url(#linear-gradient-6);
      }

      .cls-5 {
        fill: url(#linear-gradient-9);
      }

      .cls-6 {
        fill: url(#linear-gradient-4);
      }

      .cls-7 {
        fill: url(#linear-gradient-3);
      }

      .cls-8 {
        fill: url(#linear-gradient-2);
      }

      .cls-9 {
        fill: url(#linear-gradient);
      }

      .cls-10 {
        fill: url(#linear-gradient-10);
      }

      .cls-11 {
        fill: url(#linear-gradient-11);
      }

      .cls-12 {
        fill: url(#linear-gradient-12);
      }

      .cls-13 {
        fill: url(#linear-gradient-13);
      }

      .cls-14 {
        fill: url(#linear-gradient-14);
      }

      .cls-15 {
        fill: url(#linear-gradient-15);
      }

      .cls-16 {
        fill: url(#linear-gradient-16);
      }

      .cls-17 {
        fill: url(#linear-gradient-17);
      }
    </style>
    <linearGradient id="linear-gradient" x1="179.47" y1="72.78" x2="-29.86" y2="-51.13" gradientUnits="userSpaceOnUse">
      <stop offset="0" stop-color="#00294f"/>
      <stop offset="1" stop-color="#0329a1"/>
    </linearGradient>
    <linearGradient id="linear-gradient-2" x1="153.12" y1="117.29" x2="-56.22" y2="-6.62" gradientUnits="userSpaceOnUse">
      <stop offset="0" stop-color="#00294f"/>
      <stop offset="1" stop-color="#0329a1"/>
    </linearGradient>
    <linearGradient id="linear-gradient-3" x1="135.56" y1="146.95" x2="-73.77" y2="23.04" gradientUnits="userSpaceOnUse">
      <stop offset="0" stop-color="#00294f"/>
      <stop offset="1" stop-color="#0329a1"/>
    </linearGradient>
    <linearGradient id="linear-gradient-4" x1="136.13" y1="25.99" x2="3.78" y2="72.81" gradientUnits="userSpaceOnUse">
      <stop offset="0" stop-color="#18b1d0"/>
      <stop offset="1" stop-color="#19c8c3"/>
    </linearGradient>
    <linearGradient id="linear-gradient-5" x1="144.54" y1="49.75" x2="12.18" y2="96.56" xlink:href="#linear-gradient-4"/>
    <linearGradient id="linear-gradient-6" x1="428.95" y1="147.43" x2="87.9" y2="84.9" xlink:href="#linear-gradient-4"/>
    <linearGradient id="linear-gradient-7" x1="431.4" y1="134.05" x2="90.35" y2="71.52" xlink:href="#linear-gradient-4"/>
    <linearGradient id="linear-gradient-8" x1="429.5" y1="144.43" x2="88.45" y2="81.9" xlink:href="#linear-gradient-4"/>
    <linearGradient id="linear-gradient-9" x1="432.05" y1="130.49" x2="91" y2="67.96" xlink:href="#linear-gradient-4"/>
    <linearGradient id="linear-gradient-10" x1="436.91" y1="103.99" x2="95.86" y2="41.46" xlink:href="#linear-gradient-4"/>
    <linearGradient id="linear-gradient-11" x1="439.84" y1="88.03" x2="98.78" y2="25.51" xlink:href="#linear-gradient-2"/>
    <linearGradient id="linear-gradient-12" x1="440.69" y1="83.38" x2="99.64" y2="20.85" xlink:href="#linear-gradient-2"/>
    <linearGradient id="linear-gradient-13" x1="441.59" y1="78.49" x2="100.53" y2="15.96" xlink:href="#linear-gradient-2"/>
    <linearGradient id="linear-gradient-14" x1="442.56" y1="73.21" x2="101.5" y2="10.68" xlink:href="#linear-gradient-2"/>
    <linearGradient id="linear-gradient-15" x1="443.83" y1="66.24" x2="102.78" y2="3.71" xlink:href="#linear-gradient-2"/>
    <linearGradient id="linear-gradient-16" x1="445.1" y1="59.31" x2="104.05" y2="-3.21" xlink:href="#linear-gradient-2"/>
    <linearGradient id="linear-gradient-17" x1="446.6" y1="51.14" x2="105.55" y2="-11.38" xlink:href="#linear-gradient-2"/>
  </defs>
  <g>
    <path class="cls-9" d="M118.13,30.69c0,2.8-.93,5.1-2.8,7.03-1.93,1.93-4.29,2.86-7.09,2.86s-4.98-1-6.91-2.92c-1.99-1.93-2.92-4.29-2.92-6.97s.93-5.04,2.92-6.97c1.93-1.93,4.23-2.92,6.91-2.92s5.17.93,7.09,2.86c1.87,1.87,2.8,4.23,2.8,7.03Z"/>
    <g>
      <path class="cls-8" d="M129.21,55.2c-5.29-4.78-12.13-7.13-20.55-7.13s-15.04,2.43-20.74,7.24c-6.8,5.59-10.11,12.9-10.11,21.88,0,5.7,1.14,11.1,3.57,16.32h-12.17v.07h-1.95c-.29-.62-.92-1.1-1.69-1.1-1.03,0-1.8.85-1.8,1.84s.77,1.84,1.8,1.84c.77,0,1.4-.48,1.69-1.1h1.95v1.69h-4.85c-.29-.62-.92-1.1-1.69-1.1-.99,0-1.8.85-1.8,1.88,0,.96.81,1.8,1.8,1.8.77,0,1.4-.48,1.69-1.1h4.85v1.69h-1.95c-.29-.63-.92-1.1-1.69-1.1-1.03,0-1.8.85-1.8,1.88s.77,1.8,1.8,1.8c.77,0,1.4-.44,1.69-1.07h1.95v.26h.04v1.4h-5.07c-.04-.07-.07-.11-.11-.11-.29-.62-.88-.96-1.54-.96-1.03,0-1.84.85-1.84,1.84s.81,1.84,1.84,1.84c.66,0,1.25-.37,1.47-.85.07-.07.15-.15.18-.26h5.07v1.21l-.04.04v.4h-1.95c-.29-.62-.92-1.07-1.69-1.07-1.03,0-1.8.81-1.8,1.84s.77,1.84,1.8,1.84c.77,0,1.4-.48,1.69-1.1h1.95v1.65h-4.85c-.29-.62-.92-1.07-1.69-1.07-.99,0-1.8.81-1.8,1.84s.81,1.84,1.8,1.84c.77,0,1.4-.44,1.69-1.07h4.85l8.93-.04,41.84-.07c4.41,0,8.24-1.58,11.4-4.67,3.31-3.16,5.26-7.32,5.26-12.02v-21.47c0-7.21-2.46-13.05-7.43-17.46ZM116.23,91.64c0,1.21-.59,1.87-1.88,1.87h-2.87c-9.12,0-13.64-4.85-13.64-14.49,0-4.12.92-7.5,2.94-10.07,2.02-2.54,4.56-3.82,7.76-3.82,2.1,0,3.93.81,5.4,2.24,1.54,1.51,2.28,3.38,2.28,5.63v18.64Z"/>
      <path class="cls-7" d="M59.17,105.17c-.74,0-1.36.44-1.69,1.07h-8.05v-1.65h5.18c.29.63.92,1.1,1.65,1.1,1.03,0,1.88-.81,1.88-1.84s-.85-1.84-1.88-1.84c-.74,0-1.36.44-1.65,1.07h-5.18v-1.65h1.99c.29.62.92,1.07,1.65,1.07,1.03,0,1.87-.81,1.87-1.8s-.85-1.88-1.87-1.88c-.74,0-1.36.48-1.65,1.1h-1.99v-1.69h5.18c.29.62.92,1.1,1.65,1.1,1.03,0,1.88-.85,1.88-1.8,0-1.03-.85-1.88-1.88-1.88-.74,0-1.36.48-1.65,1.1h-5.18v-1.69h8.05c.33.62.96,1.1,1.69,1.1,1.03,0,1.84-.85,1.84-1.84s-.81-1.84-1.84-1.84c-.74,0-1.36.48-1.69,1.1h-8.05c-.22-.04-.4-.04-.59-.07-2.13-.26-4.23-.59-5.85-1.73-.77-.51-1.43-1.21-1.95-2.21-.11-.18-.22-.4-.33-.63-.85-2.1-.74-4.34-.74-6.58v-13.57h-4.01c-9.08,0-16.43,7.35-16.43,16.43,0,6.95,2.39,12.94,7.02,17.98,3.9,4.04,10.33,6.47,16.43,7.35,1.77.29,3.46.4,5.07.4h1.36v-.04h5.18c.29.62.92,1.07,1.65,1.07,1.03,0,1.88-.81,1.88-1.84s-.85-1.84-1.88-1.84c-.74,0-1.36.44-1.65,1.07h-5.18v-1.65h8.05c.33.62.96,1.1,1.69,1.1,1.03,0,1.84-.81,1.84-1.84s-.81-1.84-1.84-1.84Z"/>
      <g>
        <path class="cls-6" d="M116.7,20.79c.25.19.56.44.81.68,2.49,2.43,3.73,5.54,3.73,9.21s-1.24,6.72-3.73,9.21c-.25.25-.56.5-.81.68h10.58c5.48,0,9.89-4.42,9.89-9.89v-9.89h-20.47Z"/>
        <path class="cls-3" d="M63.77,94.33c0,.99.77,1.84,1.8,1.84.77,0,1.4-.48,1.69-1.1h1.95v1.69h-4.85c-.29-.62-.92-1.1-1.69-1.1-.99,0-1.8.85-1.8,1.87,0,.96.81,1.8,1.8,1.8.77,0,1.4-.48,1.69-1.1h4.85v1.69h-1.95c-.29-.62-.92-1.1-1.69-1.1-1.03,0-1.8.85-1.8,1.88s.77,1.8,1.8,1.8c.77,0,1.4-.44,1.69-1.07h1.95v.26h.04v1.4h-5.07c-.04-.07-.07-.11-.11-.11-.29-.63-.88-.96-1.54-.96-1.03,0-1.84.85-1.84,1.84s.81,1.84,1.84,1.84c.66,0,1.25-.37,1.47-.85.07-.07.15-.15.18-.26h5.07v1.21l-.04.04v.4h-1.95c-.29-.63-.92-1.07-1.69-1.07-1.03,0-1.8.81-1.8,1.84s.77,1.84,1.8,1.84c.77,0,1.4-.48,1.69-1.1h1.95v1.65h-4.85c-.29-.63-.92-1.07-1.69-1.07-.99,0-1.8.81-1.8,1.84s.81,1.84,1.8,1.84c.77,0,1.4-.44,1.69-1.07h4.85v10.7c0,.22-.07.44-.07.66-.37,10.55-9.01,19.12-19.71,19.12v-30.48h5.18c.29.62.92,1.07,1.65,1.07,1.03,0,1.88-.81,1.88-1.84s-.85-1.84-1.88-1.84c-.74,0-1.36.44-1.65,1.07h-5.18v-1.65h8.05c.33.62.96,1.1,1.69,1.1,1.03,0,1.84-.81,1.84-1.84s-.81-1.84-1.84-1.84c-.74,0-1.36.44-1.69,1.07h-8.05v-1.65h5.18c.29.62.92,1.1,1.65,1.1,1.03,0,1.88-.81,1.88-1.84s-.85-1.84-1.88-1.84c-.74,0-1.36.44-1.65,1.07h-5.18v-1.65h1.99c.29.63.92,1.07,1.65,1.07,1.03,0,1.88-.81,1.88-1.8s-.85-1.88-1.88-1.88c-.74,0-1.36.48-1.65,1.1h-1.99v-1.69h5.18c.29.63.92,1.1,1.65,1.1,1.03,0,1.88-.85,1.88-1.8,0-1.03-.85-1.87-1.88-1.87-.74,0-1.36.48-1.65,1.1h-5.18v-1.69h8.05c.33.62.96,1.1,1.69,1.1,1.03,0,1.84-.85,1.84-1.84s-.81-1.84-1.84-1.84c-.74,0-1.36.48-1.69,1.1h-8.05v-61.25c0-6.4,5.18-11.58,11.58-11.58h38.97c-.33.11-.62.44-.88.7-2.54,2.54-3.82,5.66-3.82,9.19s1.29,6.65,3.82,9.15c.26.22.55.55.88.77h-30.77v53.02h-1.95c-.29-.63-.92-1.1-1.69-1.1-1.03,0-1.8.85-1.8,1.84Z"/>
      </g>
    </g>
  </g>
  <g>
    <g>
      <path class="cls-4" d="M181.9,131.9c-3.8,0-7.2-.7-10.2-2.09-3-1.4-5.35-3.32-7.04-5.76-1.69-2.44-2.53-5.18-2.53-8.23,0-.88.06-1.98.18-3.32.13-1.33.3-2.82.5-4.44.21-1.63.45-3.33.72-5.1.27-1.77.53-3.49.78-5.16l10.64,1.38c-.46,2.75-.84,5.25-1.13,7.48-.29,2.24-.52,4.11-.69,5.63-.17,1.52-.25,2.66-.25,3.41,0,1.46.34,2.71,1,3.75.67,1.04,1.68,1.86,3.04,2.44,1.35.59,3.01.88,4.98.88,2.12,0,3.77-.3,4.94-.91,1.17-.61,1.98-1.41,2.44-2.41.46-1,.69-2.09.69-3.25v-31.29h10.76v31.29c0,3.13-.8,5.87-2.41,8.23-1.6,2.36-3.83,4.19-6.67,5.51-2.84,1.31-6.09,1.97-9.76,1.97ZM176.08,81.02v-8.19h10.83v8.19h-10.83Z"/>
      <path class="cls-2" d="M210.19,116.38v-43.81h10.7v43.81h-10.7Z"/>
      <path class="cls-1" d="M229.84,133.09c-.46,0-1.02-.02-1.69-.06-.67-.05-1.38-.11-2.13-.19l.19-8.95c.75,0,1.45,0,2.09.03.65.02,1.12.03,1.41.03,1.42,0,2.54-.58,3.35-1.72.81-1.15,1.22-2.81,1.22-4.98v-32.36h10.76v32.36c0,3.05-.64,5.77-1.9,8.17-1.27,2.4-3.05,4.27-5.32,5.63-2.27,1.35-4.94,2.03-7.98,2.03ZM243.36,116.38v-9.14h8.13v9.14h-8.13ZM251.49,116.38v-9.14c.25,0,.45.1.6.31.14.21.27.51.38.91.1.4.17.88.22,1.44.04.57.06,1.2.06,1.91s-.02,1.34-.06,1.91c-.05.56-.12,1.04-.22,1.44-.11.4-.23.7-.38.91-.15.21-.35.31-.6.31Z"/>
      <path class="cls-5" d="M251.49,116.38c-.21,0-.4-.1-.57-.31-.16-.21-.29-.51-.37-.91-.09-.39-.16-.88-.22-1.44-.07-.57-.1-1.2-.1-1.91,0-.96.04-1.77.13-2.44.08-.67.22-1.19.41-1.56.19-.38.43-.57.72-.57v9.14ZM251.49,116.38v-9.14h70.15l-3.76,2.88v-8.82c0-2.34-.73-4.12-2.19-5.35-1.46-1.23-3.86-1.85-7.2-1.85-.84,0-1.96.06-3.38.16-1.42.11-3,.28-4.76.53l-.94-8.45c1.79-.42,3.56-.76,5.29-1.03,1.73-.27,3.45-.41,5.16-.41,3.59,0,6.79.67,9.61,2,2.82,1.34,5.05,3.22,6.69,5.66,1.65,2.44,2.48,5.35,2.48,8.73v15.08h-77.15ZM306.43,131.09v-8.2h10.82v8.2h-10.82ZM328.65,116.38v-9.14h37.82v9.14h-37.82ZM366.47,116.38v-9.14c.21,0,.4.1.56.31.17.21.3.51.38.91s.16.88.22,1.44c.06.57.1,1.2.1,1.91s-.04,1.34-.1,1.91c-.06.56-.14,1.04-.22,1.44-.08.4-.21.7-.38.91-.16.21-.35.31-.56.31Z"/>
      <path class="cls-10" d="M366.47,116.38c-.21,0-.4-.1-.57-.31-.16-.21-.29-.51-.37-.91-.09-.39-.16-.88-.22-1.44-.07-.57-.1-1.2-.1-1.91,0-.96.04-1.77.13-2.44.08-.67.22-1.19.41-1.56.19-.38.43-.57.72-.57v9.14ZM366.47,116.38v-9.14h27.6l-2.06,1.75v-16.46l1.81,1.5h-6.01c-1.46,0-2.61.2-3.44.6-.84.4-1.44,1.07-1.81,2.03-.38.96-.57,2.3-.57,4.01,0,1.96.19,3.4.57,4.32.38.92.98,1.52,1.81,1.81.84.29,1.98.44,3.44.44v8.7c-3.5,0-6.5-.52-8.98-1.56-2.49-1.04-4.37-2.69-5.66-4.95-1.29-2.25-1.94-5.17-1.94-8.76,0-3.34.65-6.19,1.94-8.55,1.29-2.35,3.18-4.15,5.66-5.38,2.48-1.23,5.48-1.85,8.98-1.85h14.96v31.48h-36.3ZM383.24,79.02v-8.2h10.83v8.2h-10.83Z"/>
    </g>
    <g>
      <path class="cls-11" d="M162.13,60.94V18.57h28.72v9.2h-17.59v10.27h14.02v9.2h-14.02v13.71h-11.14Z"/>
      <path class="cls-12" d="M188.66,60.94l10.2-42.37h17.96l10.26,42.37h-11.2l-1.88-7.01h-12.64l-1.75,7.01h-10.96ZM202.93,45.23h9.76l-3.75-17.84h-2.13l-3.88,17.84Z"/>
      <path class="cls-13" d="M228.34,63.07v-9.26c.88,0,1.6-.1,2.19-.31.58-.21,1.03-.59,1.34-1.13.31-.54.53-1.37.66-2.48.12-1.11.19-2.56.19-4.35v-26.97h11.14v33.1c0,2.63-.35,4.71-1.03,6.23-.69,1.52-1.69,2.66-3,3.41-1.31.75-2.93,1.23-4.85,1.44-1.92.21-4.13.32-6.63.32Z"/>
      <path class="cls-14" d="M249.8,60.94V18.57h17.09c3.71,0,6.8.43,9.26,1.28,2.47.86,4.3,2.34,5.51,4.44,1.21,2.11,1.81,5.06,1.81,8.86,0,3.05-.48,5.59-1.44,7.63-.96,2.05-2.4,3.63-4.31,4.76l5.57,15.4h-11.45l-4.19-12.83h-6.7v12.83h-11.14ZM260.94,39.16h6.26c1.21,0,2.18-.25,2.91-.75.73-.5,1.26-1.2,1.59-2.09.33-.9.5-1.93.5-3.1,0-1.91-.43-3.36-1.28-4.31-.86-.96-2.2-1.44-4.03-1.44h-5.95v11.7Z"/>
      <path class="cls-15" d="M285.29,60.94l10.2-42.37h17.96l10.26,42.37h-11.2l-1.88-7.01h-12.64l-1.75,7.01h-10.96ZM299.56,45.23h9.76l-3.75-17.84h-2.13l-3.88,17.84Z"/>
      <path class="cls-16" d="M324.34,60.94l10.2-42.37h17.96l10.26,42.37h-11.2l-1.88-7.01h-12.64l-1.75,7.01h-10.96ZM338.61,45.23h9.76l-3.75-17.84h-2.13l-3.88,17.84Z"/>
      <path class="cls-17" d="M366.15,60.94V18.57h12.52l12.01,24.03h1v-24.03h11.14v42.37h-12.52l-11.95-24.78h-1.06v24.78h-11.14Z"/>
    </g>
  </g>
</svg>