<?xml version="1.0" encoding="UTF-8"?>
<svg id="Layer_1" data-name="Layer 1" xmlns="http://www.w3.org/2000/svg" xmlns:xlink="http://www.w3.org/1999/xlink" viewBox="0 0 422.36 160">
  <defs>
    <style>
      .cls-1 {
        fill: #19c8c3;
      }

      .cls-2 {
        fill: url(#linear-gradient-8);
      }

      .cls-3 {
        fill: url(#linear-gradient-7);
      }

      .cls-4 {
        fill: url(#linear-gradient-5);
      }

      .cls-5 {
        fill: url(#linear-gradient-6);
      }

      .cls-6 {
        fill: url(#linear-gradient-9);
      }

      .cls-7 {
        fill: url(#linear-gradient-4);
      }

      .cls-8 {
        fill: url(#linear-gradient-3);
      }

      .cls-9 {
        fill: url(#linear-gradient-2);
      }

      .cls-10 {
        fill: url(#linear-gradient);
      }

      .cls-11 {
        fill: url(#linear-gradient-10);
      }

      .cls-12 {
        fill: url(#linear-gradient-11);
      }

      .cls-13 {
        fill: url(#linear-gradient-12);
      }
    </style>
    <linearGradient id="linear-gradient" x1="179.47" y1="72.78" x2="-29.86" y2="-51.13" gradientUnits="userSpaceOnUse">
      <stop offset="0" stop-color="#00294f"/>
      <stop offset="1" stop-color="#0329a1"/>
    </linearGradient>
    <linearGradient id="linear-gradient-2" x1="153.12" y1="117.29" x2="-56.22" y2="-6.62" gradientUnits="userSpaceOnUse">
      <stop offset="0" stop-color="#00294f"/>
      <stop offset="1" stop-color="#0329a1"/>
    </linearGradient>
    <linearGradient id="linear-gradient-3" x1="135.56" y1="146.95" x2="-73.77" y2="23.04" gradientUnits="userSpaceOnUse">
      <stop offset="0" stop-color="#00294f"/>
      <stop offset="1" stop-color="#0329a1"/>
    </linearGradient>
    <linearGradient id="linear-gradient-4" x1="136.13" y1="25.99" x2="3.78" y2="72.81" gradientUnits="userSpaceOnUse">
      <stop offset="0" stop-color="#18b1d0"/>
      <stop offset="1" stop-color="#19c8c3"/>
    </linearGradient>
    <linearGradient id="linear-gradient-5" x1="144.54" y1="49.75" x2="12.18" y2="96.56" xlink:href="#linear-gradient-4"/>
    <linearGradient id="linear-gradient-6" x1="439.84" y1="88.03" x2="98.78" y2="25.51" xlink:href="#linear-gradient-2"/>
    <linearGradient id="linear-gradient-7" x1="440.69" y1="83.38" x2="99.64" y2="20.85" xlink:href="#linear-gradient-2"/>
    <linearGradient id="linear-gradient-8" x1="441.59" y1="78.49" x2="100.53" y2="15.96" xlink:href="#linear-gradient-2"/>
    <linearGradient id="linear-gradient-9" x1="442.56" y1="73.21" x2="101.5" y2="10.68" xlink:href="#linear-gradient-2"/>
    <linearGradient id="linear-gradient-10" x1="443.83" y1="66.24" x2="102.78" y2="3.71" xlink:href="#linear-gradient-2"/>
    <linearGradient id="linear-gradient-11" x1="445.1" y1="59.31" x2="104.05" y2="-3.21" xlink:href="#linear-gradient-2"/>
    <linearGradient id="linear-gradient-12" x1="446.6" y1="51.14" x2="105.55" y2="-11.38" xlink:href="#linear-gradient-2"/>
  </defs>
  <g>
    <path class="cls-10" d="M118.13,30.69c0,2.8-.93,5.1-2.8,7.03-1.93,1.93-4.29,2.86-7.09,2.86s-4.98-1-6.91-2.92c-1.99-1.93-2.92-4.29-2.92-6.97s.93-5.04,2.92-6.97c1.93-1.93,4.23-2.92,6.91-2.92s5.17.93,7.09,2.86c1.87,1.87,2.8,4.23,2.8,7.03Z"/>
    <g>
      <path class="cls-9" d="M129.21,55.2c-5.29-4.78-12.13-7.13-20.55-7.13s-15.04,2.43-20.74,7.24c-6.8,5.59-10.11,12.9-10.11,21.88,0,5.7,1.14,11.1,3.57,16.32h-12.17v.07h-1.95c-.29-.62-.92-1.1-1.69-1.1-1.03,0-1.8.85-1.8,1.84s.77,1.84,1.8,1.84c.77,0,1.4-.48,1.69-1.1h1.95v1.69h-4.85c-.29-.62-.92-1.1-1.69-1.1-.99,0-1.8.85-1.8,1.88,0,.96.81,1.8,1.8,1.8.77,0,1.4-.48,1.69-1.1h4.85v1.69h-1.95c-.29-.63-.92-1.1-1.69-1.1-1.03,0-1.8.85-1.8,1.88s.77,1.8,1.8,1.8c.77,0,1.4-.44,1.69-1.07h1.95v.26h.04v1.4h-5.07c-.04-.07-.07-.11-.11-.11-.29-.62-.88-.96-1.54-.96-1.03,0-1.84.85-1.84,1.84s.81,1.84,1.84,1.84c.66,0,1.25-.37,1.47-.85.07-.07.15-.15.18-.26h5.07v1.21l-.04.04v.4h-1.95c-.29-.62-.92-1.07-1.69-1.07-1.03,0-1.8.81-1.8,1.84s.77,1.84,1.8,1.84c.77,0,1.4-.48,1.69-1.1h1.95v1.65h-4.85c-.29-.62-.92-1.07-1.69-1.07-.99,0-1.8.81-1.8,1.84s.81,1.84,1.8,1.84c.77,0,1.4-.44,1.69-1.07h4.85l8.93-.04,41.84-.07c4.41,0,8.24-1.58,11.4-4.67,3.31-3.16,5.26-7.32,5.26-12.02v-21.47c0-7.21-2.46-13.05-7.43-17.46ZM116.23,91.64c0,1.21-.59,1.87-1.88,1.87h-2.87c-9.12,0-13.64-4.85-13.64-14.49,0-4.12.92-7.5,2.94-10.07,2.02-2.54,4.56-3.82,7.76-3.82,2.1,0,3.93.81,5.4,2.24,1.54,1.51,2.28,3.38,2.28,5.63v18.64Z"/>
      <path class="cls-8" d="M59.17,105.17c-.74,0-1.36.44-1.69,1.07h-8.05v-1.65h5.18c.29.63.92,1.1,1.65,1.1,1.03,0,1.88-.81,1.88-1.84s-.85-1.84-1.88-1.84c-.74,0-1.36.44-1.65,1.07h-5.18v-1.65h1.99c.29.62.92,1.07,1.65,1.07,1.03,0,1.87-.81,1.87-1.8s-.85-1.88-1.87-1.88c-.74,0-1.36.48-1.65,1.1h-1.99v-1.69h5.18c.29.62.92,1.1,1.65,1.1,1.03,0,1.88-.85,1.88-1.8,0-1.03-.85-1.88-1.88-1.88-.74,0-1.36.48-1.65,1.1h-5.18v-1.69h8.05c.33.62.96,1.1,1.69,1.1,1.03,0,1.84-.85,1.84-1.84s-.81-1.84-1.84-1.84c-.74,0-1.36.48-1.69,1.1h-8.05c-.22-.04-.4-.04-.59-.07-2.13-.26-4.23-.59-5.85-1.73-.77-.51-1.43-1.21-1.95-2.21-.11-.18-.22-.4-.33-.63-.85-2.1-.74-4.34-.74-6.58v-13.57h-4.01c-9.08,0-16.43,7.35-16.43,16.43,0,6.95,2.39,12.94,7.02,17.98,3.9,4.04,10.33,6.47,16.43,7.35,1.77.29,3.46.4,5.07.4h1.36v-.04h5.18c.29.62.92,1.07,1.65,1.07,1.03,0,1.88-.81,1.88-1.84s-.85-1.84-1.88-1.84c-.74,0-1.36.44-1.65,1.07h-5.18v-1.65h8.05c.33.62.96,1.1,1.69,1.1,1.03,0,1.84-.81,1.84-1.84s-.81-1.84-1.84-1.84Z"/>
      <g>
        <path class="cls-7" d="M116.7,20.79c.25.19.56.44.81.68,2.49,2.43,3.73,5.54,3.73,9.21s-1.24,6.72-3.73,9.21c-.25.25-.56.5-.81.68h10.58c5.48,0,9.89-4.42,9.89-9.89v-9.89h-20.47Z"/>
        <path class="cls-4" d="M63.77,94.33c0,.99.77,1.84,1.8,1.84.77,0,1.4-.48,1.69-1.1h1.95v1.69h-4.85c-.29-.62-.92-1.1-1.69-1.1-.99,0-1.8.85-1.8,1.87,0,.96.81,1.8,1.8,1.8.77,0,1.4-.48,1.69-1.1h4.85v1.69h-1.95c-.29-.62-.92-1.1-1.69-1.1-1.03,0-1.8.85-1.8,1.88s.77,1.8,1.8,1.8c.77,0,1.4-.44,1.69-1.07h1.95v.26h.04v1.4h-5.07c-.04-.07-.07-.11-.11-.11-.29-.63-.88-.96-1.54-.96-1.03,0-1.84.85-1.84,1.84s.81,1.84,1.84,1.84c.66,0,1.25-.37,1.47-.85.07-.07.15-.15.18-.26h5.07v1.21l-.04.04v.4h-1.95c-.29-.63-.92-1.07-1.69-1.07-1.03,0-1.8.81-1.8,1.84s.77,1.84,1.8,1.84c.77,0,1.4-.48,1.69-1.1h1.95v1.65h-4.85c-.29-.63-.92-1.07-1.69-1.07-.99,0-1.8.81-1.8,1.84s.81,1.84,1.8,1.84c.77,0,1.4-.44,1.69-1.07h4.85v10.7c0,.22-.07.44-.07.66-.37,10.55-9.01,19.12-19.71,19.12v-30.48h5.18c.29.62.92,1.07,1.65,1.07,1.03,0,1.88-.81,1.88-1.84s-.85-1.84-1.88-1.84c-.74,0-1.36.44-1.65,1.07h-5.18v-1.65h8.05c.33.62.96,1.1,1.69,1.1,1.03,0,1.84-.81,1.84-1.84s-.81-1.84-1.84-1.84c-.74,0-1.36.44-1.69,1.07h-8.05v-1.65h5.18c.29.62.92,1.1,1.65,1.1,1.03,0,1.88-.81,1.88-1.84s-.85-1.84-1.88-1.84c-.74,0-1.36.44-1.65,1.07h-5.18v-1.65h1.99c.29.63.92,1.07,1.65,1.07,1.03,0,1.88-.81,1.88-1.8s-.85-1.88-1.88-1.88c-.74,0-1.36.48-1.65,1.1h-1.99v-1.69h5.18c.29.63.92,1.1,1.65,1.1,1.03,0,1.88-.85,1.88-1.8,0-1.03-.85-1.87-1.88-1.87-.74,0-1.36.48-1.65,1.1h-5.18v-1.69h8.05c.33.62.96,1.1,1.69,1.1,1.03,0,1.84-.85,1.84-1.84s-.81-1.84-1.84-1.84c-.74,0-1.36.48-1.69,1.1h-8.05v-61.25c0-6.4,5.18-11.58,11.58-11.58h38.97c-.33.11-.62.44-.88.7-2.54,2.54-3.82,5.66-3.82,9.19s1.29,6.65,3.82,9.15c.26.22.55.55.88.77h-30.77v53.02h-1.95c-.29-.63-.92-1.1-1.69-1.1-1.03,0-1.8.85-1.8,1.84Z"/>
      </g>
    </g>
  </g>
  <g>
    <path class="cls-5" d="M162.13,60.94V18.57h28.72v9.2h-17.59v10.27h14.02v9.2h-14.02v13.71h-11.14Z"/>
    <path class="cls-3" d="M188.66,60.94l10.2-42.37h17.96l10.26,42.37h-11.2l-1.88-7.01h-12.64l-1.75,7.01h-10.96ZM202.93,45.23h9.76l-3.75-17.84h-2.13l-3.88,17.84Z"/>
    <path class="cls-2" d="M228.34,63.07v-9.26c.88,0,1.6-.1,2.19-.31.58-.21,1.03-.59,1.34-1.13.31-.54.53-1.37.66-2.48.12-1.11.19-2.56.19-4.35v-26.97h11.14v33.1c0,2.63-.35,4.71-1.03,6.23-.69,1.52-1.69,2.66-3,3.41-1.31.75-2.93,1.23-4.85,1.44-1.92.21-4.13.32-6.63.32Z"/>
    <path class="cls-6" d="M249.8,60.94V18.57h17.09c3.71,0,6.8.43,9.26,1.28,2.47.86,4.3,2.34,5.51,4.44,1.21,2.11,1.81,5.06,1.81,8.86,0,3.05-.48,5.59-1.44,7.63-.96,2.05-2.4,3.63-4.31,4.76l5.57,15.4h-11.45l-4.19-12.83h-6.7v12.83h-11.14ZM260.94,39.16h6.26c1.21,0,2.18-.25,2.91-.75.73-.5,1.26-1.2,1.59-2.09.33-.9.5-1.93.5-3.1,0-1.91-.43-3.36-1.28-4.31-.86-.96-2.2-1.44-4.03-1.44h-5.95v11.7Z"/>
    <path class="cls-11" d="M285.29,60.94l10.2-42.37h17.96l10.26,42.37h-11.2l-1.88-7.01h-12.64l-1.75,7.01h-10.96ZM299.56,45.23h9.76l-3.75-17.84h-2.13l-3.88,17.84Z"/>
    <path class="cls-12" d="M324.34,60.94l10.2-42.37h17.96l10.26,42.37h-11.2l-1.88-7.01h-12.64l-1.75,7.01h-10.96ZM338.61,45.23h9.76l-3.75-17.84h-2.13l-3.88,17.84Z"/>
    <path class="cls-13" d="M366.15,60.94V18.57h12.52l12.01,24.03h1v-24.03h11.14v42.37h-12.52l-11.95-24.78h-1.06v24.78h-11.14Z"/>
  </g>
  <g>
    <path class="cls-1" d="M174.82,132.66v-37.81h-11.94v-9.11h34.5v9.11h-11.66v37.81h-10.9Z"/>
    <path class="cls-1" d="M202.01,132.66v-46.92h32.02v8.9h-21.11v9.87h16.97v8.83h-16.97v10.35h21.11v8.97h-32.02Z"/>
    <path class="cls-1" d="M257.07,133.49c-3.68,0-6.73-.46-9.14-1.38-2.42-.92-4.32-2.36-5.73-4.31-1.4-1.96-2.39-4.46-2.97-7.52-.58-3.06-.86-6.75-.86-11.07s.29-8.03.86-11.11c.58-3.08,1.56-5.59,2.97-7.52,1.4-1.93,3.33-3.36,5.8-4.28,2.46-.92,5.6-1.38,9.42-1.38,1.47,0,3.04.08,4.69.24,1.66.16,3.28.38,4.86.66,1.59.28,2.96.55,4.11.83l-.28,8.56c-.92-.14-2.05-.28-3.38-.41s-2.7-.26-4.11-.38c-1.4-.11-2.72-.17-3.97-.17-2.07,0-3.75.25-5.04.76-1.29.51-2.29,1.35-3,2.52-.71,1.17-1.2,2.7-1.45,4.59-.25,1.89-.38,4.26-.38,7.11s.13,5.16.38,7.07c.25,1.91.74,3.44,1.45,4.59.71,1.15,1.71,1.98,3,2.48,1.29.51,2.99.76,5.11.76,1.84,0,3.85-.09,6.04-.28,2.18-.18,3.99-.34,5.42-.48l.21,8.49c-1.06.23-2.36.48-3.9.76-1.54.28-3.2.49-4.97.66-1.77.16-3.48.24-5.14.24Z"/>
    <path class="cls-1" d="M276.8,132.66v-46.92h10.9v19.04h16.28v-19.04h10.9v46.92h-10.9v-18.77h-16.28v18.77h-10.9Z"/>
  </g>
</svg>