<?xml version="1.0" encoding="UTF-8"?>
<svg id="Layer_1" data-name="Layer 1" xmlns="http://www.w3.org/2000/svg" xmlns:xlink="http://www.w3.org/1999/xlink" viewBox="0 0 500 160">
  <defs>
    <style>
      .cls-1 {
        fill: url(#linear-gradient-2);
      }

      .cls-2 {
        fill: url(#linear-gradient-17);
      }

      .cls-3 {
        fill: url(#linear-gradient-15);
      }

      .cls-4 {
        fill: url(#linear-gradient-14);
      }

      .cls-5 {
        fill: url(#linear-gradient-6);
      }

      .cls-6 {
        fill: url(#linear-gradient-11);
      }

      .cls-7 {
        fill: url(#linear-gradient-10);
      }

      .cls-8 {
        fill: url(#linear-gradient-16);
      }

      .cls-9 {
        fill: url(#linear-gradient-5);
      }

      .cls-10 {
        fill: url(#linear-gradient-7);
      }

      .cls-11 {
        fill: url(#linear-gradient-9);
      }

      .cls-12 {
        fill: url(#linear-gradient-3);
      }

      .cls-13 {
        fill: url(#linear-gradient);
      }

      .cls-14 {
        fill: url(#linear-gradient-4);
      }

      .cls-15 {
        fill: url(#linear-gradient-8);
      }

      .cls-16 {
        fill: url(#linear-gradient-12);
      }

      .cls-17 {
        fill: url(#linear-gradient-13);
      }
    </style>
    <linearGradient id="linear-gradient" x1="208.5" y1="70.3" x2="-30.42" y2="-71.13" gradientUnits="userSpaceOnUse">
      <stop offset="0" stop-color="#00294f"/>
      <stop offset="1" stop-color="#0329a1"/>
    </linearGradient>
    <linearGradient id="linear-gradient-2" x1="178.42" y1="121.1" x2="-60.5" y2="-20.32" gradientUnits="userSpaceOnUse">
      <stop offset="0" stop-color="#00294f"/>
      <stop offset="1" stop-color="#0329a1"/>
    </linearGradient>
    <linearGradient id="linear-gradient-3" x1="158.38" y1="154.95" x2="-80.53" y2="13.53" gradientUnits="userSpaceOnUse">
      <stop offset="0" stop-color="#00294f"/>
      <stop offset="1" stop-color="#0329a1"/>
    </linearGradient>
    <linearGradient id="linear-gradient-4" x1="159.04" y1="16.89" x2="7.97" y2="70.33" gradientUnits="userSpaceOnUse">
      <stop offset="0" stop-color="#18b1d0"/>
      <stop offset="1" stop-color="#19c8c3"/>
    </linearGradient>
    <linearGradient id="linear-gradient-5" x1="168.63" y1="44.01" x2="17.56" y2="97.44" xlink:href="#linear-gradient-4"/>
    <linearGradient id="linear-gradient-6" x1="505.13" y1="166.14" x2="99.21" y2="91.72" xlink:href="#linear-gradient-4"/>
    <linearGradient id="linear-gradient-7" x1="508.05" y1="150.21" x2="102.13" y2="75.79" xlink:href="#linear-gradient-4"/>
    <linearGradient id="linear-gradient-8" x1="505.79" y1="162.57" x2="99.86" y2="88.15" xlink:href="#linear-gradient-4"/>
    <linearGradient id="linear-gradient-9" x1="508.83" y1="145.97" x2="102.91" y2="71.55" xlink:href="#linear-gradient-4"/>
    <linearGradient id="linear-gradient-10" x1="514.61" y1="114.43" x2="108.69" y2="40.01" xlink:href="#linear-gradient-4"/>
    <linearGradient id="linear-gradient-11" x1="518.09" y1="95.45" x2="112.17" y2="21.03" xlink:href="#linear-gradient-2"/>
    <linearGradient id="linear-gradient-12" x1="519.11" y1="89.9" x2="113.19" y2="15.48" xlink:href="#linear-gradient-2"/>
    <linearGradient id="linear-gradient-13" x1="520.18" y1="84.09" x2="114.25" y2="9.67" xlink:href="#linear-gradient-2"/>
    <linearGradient id="linear-gradient-14" x1="521.33" y1="77.8" x2="115.41" y2="3.38" xlink:href="#linear-gradient-2"/>
    <linearGradient id="linear-gradient-15" x1="522.85" y1="69.5" x2="116.93" y2="-4.91" xlink:href="#linear-gradient-2"/>
    <linearGradient id="linear-gradient-16" x1="524.36" y1="61.26" x2="118.44" y2="-13.16" xlink:href="#linear-gradient-2"/>
    <linearGradient id="linear-gradient-17" x1="526.14" y1="51.54" x2="120.22" y2="-22.88" xlink:href="#linear-gradient-2"/>
  </defs>
  <g>
    <path className="cls-13" d="M138.49,22.26c0,3.2-1.06,5.82-3.2,8.03-2.2,2.2-4.9,3.27-8.1,3.27s-5.68-1.14-7.88-3.34c-2.27-2.2-3.34-4.9-3.34-7.95s1.07-5.75,3.34-7.95c2.2-2.2,4.83-3.34,7.88-3.34s5.9,1.07,8.1,3.27c2.13,2.13,3.2,4.83,3.2,8.03Z"/>
    <g>
      <path className="cls-1" d="M151.13,50.24c-6.04-5.46-13.85-8.14-23.46-8.14s-17.16,2.77-23.67,8.27c-7.76,6.38-11.54,14.73-11.54,24.97,0,6.5,1.3,12.67,4.07,18.63h-13.89v.08h-2.22c-.34-.71-1.05-1.26-1.93-1.26-1.18,0-2.06,.97-2.06,2.1s.88,2.1,2.06,2.1c.88,0,1.59-.55,1.93-1.26h2.22v1.93h-5.54c-.34-.71-1.05-1.26-1.93-1.26-1.13,0-2.06,.97-2.06,2.14,0,1.09,.92,2.06,2.06,2.06,.88,0,1.6-.55,1.93-1.26h5.54v1.93h-2.22c-.34-.71-1.05-1.26-1.93-1.26-1.18,0-2.06,.97-2.06,2.14s.88,2.06,2.06,2.06c.88,0,1.59-.5,1.93-1.22h2.22v.29h.04v1.59h-5.79c-.04-.08-.08-.13-.13-.13-.34-.71-1.01-1.09-1.76-1.09-1.17,0-2.1,.97-2.1,2.1s.92,2.1,2.1,2.1c.76,0,1.43-.42,1.68-.97,.08-.08,.17-.17,.21-.29h5.79v1.38l-.04,.04v.46h-2.22c-.34-.71-1.05-1.22-1.93-1.22-1.18,0-2.06,.92-2.06,2.1s.88,2.1,2.06,2.1c.88,0,1.59-.55,1.93-1.26h2.22v1.89h-5.54c-.34-.71-1.05-1.22-1.93-1.22-1.13,0-2.06,.92-2.06,2.1s.92,2.1,2.06,2.1c.88,0,1.6-.5,1.93-1.22h5.54l10.2-.04,47.75-.08c5.04,0,9.4-1.8,13.01-5.33,3.78-3.61,6-8.35,6-13.72v-24.51c0-8.22-2.81-14.9-8.48-19.93Zm-14.81,41.58c0,1.38-.67,2.14-2.14,2.14h-3.27c-10.41,0-15.57-5.54-15.57-16.53,0-4.7,1.05-8.56,3.36-11.5,2.31-2.9,5.2-4.36,8.85-4.36,2.39,0,4.49,.92,6.17,2.56,1.76,1.72,2.6,3.86,2.6,6.42v21.28Z"/>
      <path className="cls-12" d="M71.2,107.27c-.84,0-1.55,.5-1.93,1.22h-9.19v-1.89h5.92c.34,.71,1.05,1.26,1.89,1.26,1.18,0,2.14-.92,2.14-2.1s-.97-2.1-2.14-2.1c-.84,0-1.55,.5-1.89,1.22h-5.92v-1.89h2.27c.34,.71,1.05,1.22,1.89,1.22,1.17,0,2.14-.92,2.14-2.06s-.97-2.14-2.14-2.14c-.84,0-1.55,.55-1.89,1.26h-2.27v-1.93h5.92c.34,.71,1.05,1.26,1.89,1.26,1.18,0,2.14-.97,2.14-2.06,0-1.17-.97-2.14-2.14-2.14-.84,0-1.55,.55-1.89,1.26h-5.92v-1.93h9.19c.38,.71,1.09,1.26,1.93,1.26,1.18,0,2.1-.97,2.1-2.1s-.92-2.1-2.1-2.1c-.84,0-1.55,.55-1.93,1.26h-9.19c-.25-.04-.46-.04-.67-.08-2.43-.29-4.83-.67-6.67-1.97-.88-.59-1.64-1.38-2.22-2.52-.13-.21-.25-.46-.38-.71-.97-2.39-.84-4.95-.84-7.51v-15.48h-4.57c-10.36,0-18.76,8.39-18.76,18.76,0,7.93,2.73,14.77,8.01,20.52,4.45,4.62,11.79,7.39,18.76,8.39,2.01,.34,3.94,.46,5.79,.46h1.55v-.04h5.92c.34,.71,1.05,1.22,1.89,1.22,1.18,0,2.14-.92,2.14-2.1s-.97-2.1-2.14-2.1c-.84,0-1.55,.5-1.89,1.22h-5.92v-1.89h9.19c.38,.71,1.09,1.26,1.93,1.26,1.18,0,2.1-.92,2.1-2.1s-.92-2.1-2.1-2.1Z"/>
      <g>
        <path className="cls-14" d="M136.86,10.96c.28,.21,.64,.5,.92,.78,2.84,2.77,4.26,6.32,4.26,10.51s-1.42,7.67-4.26,10.51c-.28,.28-.64,.57-.92,.78h12.07c6.25,0,11.29-5.04,11.29-11.29V10.96h-23.37Z"/>
        <path className="cls-9" d="M76.44,94.9c0,1.13,.88,2.1,2.06,2.1,.88,0,1.59-.55,1.93-1.26h2.22v1.93h-5.54c-.34-.71-1.05-1.26-1.93-1.26-1.13,0-2.06,.97-2.06,2.14,0,1.09,.92,2.06,2.06,2.06,.88,0,1.59-.55,1.93-1.26h5.54v1.93h-2.22c-.34-.71-1.05-1.26-1.93-1.26-1.18,0-2.06,.97-2.06,2.14s.88,2.06,2.06,2.06c.88,0,1.59-.5,1.93-1.22h2.22v.29h.04v1.59h-5.79c-.04-.08-.08-.13-.13-.13-.34-.71-1.01-1.09-1.76-1.09-1.18,0-2.1,.97-2.1,2.1s.92,2.1,2.1,2.1c.76,0,1.43-.42,1.68-.97,.08-.08,.17-.17,.21-.29h5.79v1.38l-.04,.04v.46h-2.22c-.34-.71-1.05-1.22-1.93-1.22-1.18,0-2.06,.92-2.06,2.1s.88,2.1,2.06,2.1c.88,0,1.59-.55,1.93-1.26h2.22v1.89h-5.54c-.34-.71-1.05-1.22-1.93-1.22-1.13,0-2.06,.92-2.06,2.1s.92,2.1,2.06,2.1c.88,0,1.59-.5,1.93-1.22h5.54v12.21c0,.25-.08,.5-.08,.76-.42,12.04-10.28,21.82-22.49,21.82v-34.79h5.92c.34,.71,1.05,1.22,1.89,1.22,1.18,0,2.14-.92,2.14-2.1s-.97-2.1-2.14-2.1c-.84,0-1.55,.5-1.89,1.22h-5.92v-1.89h9.19c.38,.71,1.09,1.26,1.93,1.26,1.17,0,2.1-.92,2.1-2.1s-.92-2.1-2.1-2.1c-.84,0-1.55,.5-1.93,1.22h-9.19v-1.89h5.92c.34,.71,1.05,1.26,1.89,1.26,1.18,0,2.14-.92,2.14-2.1s-.97-2.1-2.14-2.1c-.84,0-1.55,.5-1.89,1.22h-5.92v-1.89h2.27c.34,.71,1.05,1.22,1.89,1.22,1.18,0,2.14-.92,2.14-2.06s-.97-2.14-2.14-2.14c-.84,0-1.55,.55-1.89,1.26h-2.27v-1.93h5.92c.34,.71,1.05,1.26,1.89,1.26,1.18,0,2.14-.97,2.14-2.06,0-1.17-.97-2.14-2.14-2.14-.84,0-1.55,.55-1.89,1.26h-5.92v-1.93h9.19c.38,.71,1.09,1.26,1.93,1.26,1.17,0,2.1-.97,2.1-2.1s-.92-2.1-2.1-2.1c-.84,0-1.55,.55-1.93,1.26h-9.19V24.15c0-7.3,5.92-13.22,13.22-13.22h44.48c-.38,.13-.71,.5-1.01,.8-2.9,2.9-4.36,6.46-4.36,10.49s1.47,7.6,4.36,10.45c.29,.25,.63,.63,1.01,.88h-35.12v60.51h-2.22c-.34-.71-1.05-1.26-1.93-1.26-1.18,0-2.06,.97-2.06,2.1Z"/>
      </g>
    </g>
  </g>
  <g>
    <g>
      <path className="cls-5" d="M211.1,147.65c-4.52,0-8.57-.83-12.14-2.49-3.58-1.67-6.37-3.95-8.38-6.86-2.01-2.9-3.01-6.17-3.01-9.8,0-1.04,.07-2.36,.22-3.95,.15-1.59,.35-3.35,.6-5.29,.25-1.94,.53-3.96,.85-6.07,.32-2.11,.63-4.16,.93-6.15l12.66,1.64c-.55,3.27-.99,6.24-1.35,8.9-.35,2.66-.62,4.89-.82,6.7-.2,1.81-.3,3.16-.3,4.06,0,1.73,.4,3.22,1.19,4.47,.79,1.24,1.99,2.21,3.61,2.9,1.61,.7,3.58,1.04,5.92,1.04,2.53,0,4.49-.36,5.88-1.08,1.39-.72,2.36-1.67,2.91-2.87,.55-1.19,.82-2.49,.82-3.87v-37.24h12.81v37.24c0,3.73-.96,6.99-2.87,9.8-1.91,2.81-4.56,4.99-7.93,6.55s-7.25,2.35-11.61,2.35Zm-6.93-60.56v-9.75h12.89v9.75h-12.89Z"/>
      <path className="cls-10" d="M244.77,129.18v-52.14h12.74v52.14h-12.74Z"/>
      <path className="cls-15" d="M268.15,149.07c-.55,0-1.21-.02-2.01-.07-.79-.05-1.64-.13-2.53-.22l.22-10.65c.89,0,1.72,0,2.49,.04,.77,.02,1.33,.04,1.68,.04,1.69,0,3.02-.68,3.98-2.05,.97-1.36,1.45-3.34,1.45-5.92v-38.51h12.81v38.51c0,3.62-.76,6.86-2.27,9.72-1.52,2.86-3.62,5.09-6.33,6.7-2.7,1.61-5.87,2.42-9.5,2.42Zm16.09-19.89v-10.87h9.68v10.87h-9.68Zm9.68,0v-10.87c.3,0,.53,.12,.71,.37,.17,.25,.32,.61,.45,1.09,.12,.47,.21,1.04,.26,1.71,.05,.67,.07,1.43,.07,2.27s-.02,1.6-.07,2.27c-.05,.67-.14,1.24-.26,1.71-.13,.47-.28,.84-.45,1.09-.18,.25-.41,.37-.71,.37Z"/>
      <path className="cls-11" d="M293.93,129.18c-.25,0-.47-.12-.67-.37-.19-.25-.35-.61-.44-1.09-.1-.47-.19-1.04-.26-1.71-.08-.67-.12-1.43-.12-2.27,0-1.14,.05-2.11,.15-2.9,.1-.79,.26-1.42,.48-1.86,.22-.45,.51-.67,.85-.67v10.87Zm0,0v-10.87h83.49l-4.47,3.42v-10.5c0-2.78-.87-4.9-2.61-6.37-1.74-1.47-4.59-2.2-8.57-2.2-.99,0-2.33,.07-4.02,.19-1.69,.13-3.58,.33-5.66,.64l-1.12-10.06c2.13-.5,4.24-.91,6.3-1.23,2.05-.32,4.1-.48,6.14-.48,4.27,0,8.09,.79,11.44,2.38,3.35,1.59,6.01,3.84,7.97,6.74,1.96,2.91,2.95,6.37,2.95,10.4v17.95h-91.83Zm65.39,17.51v-9.76h12.88v9.76h-12.88Zm26.44-17.51v-10.87h45.01v10.87h-45.01Zm45.01,0v-10.87c.25,0,.47,.12,.67,.37,.2,.25,.35,.61,.45,1.09s.19,1.04,.26,1.71c.07,.67,.12,1.43,.12,2.27s-.04,1.6-.12,2.27c-.07,.67-.16,1.24-.26,1.71-.1,.47-.25,.84-.45,1.09-.19,.25-.42,.37-.67,.37Z"/>
      <path className="cls-7" d="M430.77,129.18c-.25,0-.47-.12-.67-.37-.19-.25-.35-.61-.44-1.09-.1-.47-.19-1.04-.26-1.71-.08-.67-.12-1.43-.12-2.27,0-1.14,.05-2.11,.15-2.9,.1-.79,.26-1.42,.48-1.86,.22-.45,.51-.67,.85-.67v10.87Zm0,0v-10.87h32.85l-2.46,2.09v-19.59l2.16,1.79h-7.15c-1.74,0-3.1,.24-4.1,.71-.99,.47-1.71,1.28-2.16,2.42-.45,1.15-.67,2.73-.67,4.77,0,2.33,.22,4.04,.67,5.14,.45,1.09,1.16,1.81,2.16,2.16,.99,.35,2.36,.52,4.1,.52v10.35c-4.17,0-7.73-.62-10.69-1.86-2.96-1.24-5.2-3.21-6.74-5.89-1.54-2.68-2.31-6.16-2.31-10.43,0-3.98,.77-7.37,2.31-10.17,1.54-2.8,3.78-4.94,6.74-6.4,2.95-1.47,6.52-2.2,10.69-2.2h17.8v37.47h-43.2Zm19.96-44.47v-9.76h12.89v9.76h-12.89Z"/>
    </g>
    <g>
      <path className="cls-6" d="M187.56,63.2V12.77h34.19v10.95h-20.93v12.22h16.69v10.95h-16.69v16.31h-13.26Z"/>
      <path className="cls-16" d="M219.14,63.2l12.14-50.43h21.38l12.21,50.43h-13.33l-2.24-8.34h-15.05l-2.09,8.34h-13.04Zm16.99-18.69h11.62l-4.47-21.23h-2.53l-4.62,21.23Z"/>
      <path className="cls-17" d="M266.37,65.73v-11.03c1.04,0,1.91-.12,2.61-.37,.69-.25,1.22-.7,1.6-1.34,.37-.65,.63-1.63,.78-2.95,.15-1.32,.22-3.04,.22-5.18V12.77h13.26V52.17c0,3.13-.41,5.6-1.23,7.41-.82,1.81-2.01,3.16-3.58,4.06-1.56,.89-3.49,1.46-5.77,1.71-2.29,.25-4.92,.38-7.89,.38Z"/>
      <path className="cls-4" d="M291.91,63.2V12.77h20.34c4.42,0,8.09,.51,11.02,1.53,2.93,1.02,5.12,2.78,6.56,5.29,1.44,2.51,2.16,6.03,2.16,10.54,0,3.62-.57,6.66-1.72,9.09-1.14,2.44-2.86,4.32-5.13,5.66l6.63,18.32h-13.63l-4.99-15.27h-7.97v15.27h-13.26Zm13.26-25.92h7.45c1.44,0,2.59-.3,3.47-.9,.87-.59,1.5-1.42,1.9-2.49,.39-1.07,.59-2.3,.59-3.69,0-2.28-.51-3.99-1.53-5.13-1.02-1.15-2.62-1.72-4.8-1.72h-7.08v13.93Z"/>
      <path className="cls-3" d="M334.15,63.2l12.14-50.43h21.38l12.21,50.43h-13.33l-2.24-8.34h-15.05l-2.09,8.34h-13.04Zm16.99-18.69h11.62l-4.47-21.23h-2.53l-4.62,21.23Z"/>
      <path className="cls-8" d="M380.63,63.2l12.14-50.43h21.38l12.21,50.43h-13.33l-2.24-8.34h-15.05l-2.09,8.34h-13.04Zm16.99-18.69h11.62l-4.47-21.23h-2.53l-4.62,21.23Z"/>
      <path className="cls-2" d="M430.39,63.2V12.77h14.9l14.3,28.61h1.19V12.77h13.26V63.2h-14.9l-14.23-29.5h-1.27v29.5h-13.26Z"/>
    </g>
  </g>
</svg>