<?xml version="1.0" encoding="UTF-8"?>
<svg id="Layer_1" data-name="Layer 1" xmlns="http://www.w3.org/2000/svg" xmlns:xlink="http://www.w3.org/1999/xlink" viewBox="0 0 500 160">
  <defs>
    <style>
      .cls-1 {
        fill: url(#linear-gradient-2);
      }

      .cls-2 {
        fill: #fff;
      }

      .cls-3 {
        fill: url(#linear-gradient);
      }
    </style>
    <linearGradient id="linear-gradient" x1="137.03" y1="22.19" x2="160.42" y2="22.19" gradientUnits="userSpaceOnUse">
      <stop offset="0" stop-color="#18b1d0"/>
      <stop offset="1" stop-color="#19bec9"/>
    </linearGradient>
    <linearGradient id="linear-gradient-2" x1="60.15" y1="79.8" x2="117.92" y2="79.8" xlink:href="#linear-gradient"/>
  </defs>
  <g>
    <g>
      <path className="cls-2" d="M211.58,147.73c-4.51,0-8.55-.83-12.12-2.49-3.57-1.66-6.36-3.94-8.37-6.84-2.01-2.9-3.01-6.16-3.01-9.78,0-1.04,.07-2.35,.22-3.94,.15-1.59,.35-3.35,.6-5.28,.25-1.94,.53-3.95,.85-6.06,.32-2.11,.63-4.15,.93-6.13l12.64,1.64c-.55,3.27-.99,6.23-1.34,8.88-.34,2.66-.62,4.88-.82,6.69-.2,1.81-.3,3.16-.3,4.05,0,1.73,.4,3.22,1.19,4.46s1.99,2.21,3.61,2.9c1.61,.7,3.58,1.04,5.91,1.04,2.52,0,4.48-.36,5.87-1.08,1.39-.72,2.35-1.67,2.9-2.86,.54-1.19,.82-2.48,.82-3.87v-37.17h12.78v37.17c0,3.72-.96,6.98-2.86,9.78-1.91,2.8-4.55,4.98-7.92,6.54-3.37,1.56-7.24,2.34-11.59,2.34Zm-6.92-60.44v-9.73h12.86v9.73h-12.86Z"/>
      <path className="cls-2" d="M245.18,129.3v-52.04h12.71v52.04h-12.71Z"/>
      <path className="cls-2" d="M268.52,149.15c-.54,0-1.21-.02-2-.07-.79-.05-1.64-.13-2.53-.22l.22-10.63c.89,0,1.72,0,2.49,.04,.77,.02,1.32,.04,1.68,.04,1.68,0,3.01-.68,3.97-2.04,.97-1.36,1.45-3.33,1.45-5.91v-38.44h12.78v38.44c0,3.62-.76,6.85-2.26,9.7-1.51,2.85-3.62,5.08-6.32,6.69-2.7,1.61-5.86,2.41-9.48,2.41Zm16.06-19.85v-10.85h9.66v10.85h-9.66Zm9.66,0v-10.85c.3,0,.53,.12,.71,.37,.17,.25,.32,.61,.45,1.08,.12,.47,.21,1.04,.26,1.71,.05,.67,.07,1.43,.07,2.27s-.02,1.6-.07,2.27c-.05,.67-.14,1.24-.26,1.71-.13,.47-.28,.83-.45,1.08-.18,.25-.41,.37-.71,.37Z"/>
      <path className="cls-2" d="M294.24,129.3c-.25,0-.47-.12-.67-.37-.19-.25-.34-.61-.44-1.08-.1-.47-.19-1.04-.26-1.71-.08-.67-.11-1.43-.11-2.27,0-1.14,.05-2.11,.15-2.9,.1-.79,.26-1.42,.48-1.86,.22-.45,.51-.67,.85-.67v10.85Zm0,0v-10.85h83.33l-4.46,3.42v-10.48c0-2.78-.87-4.89-2.6-6.36-1.74-1.46-4.59-2.2-8.55-2.2-.99,0-2.33,.07-4.01,.19-1.69,.13-3.57,.33-5.65,.64l-1.12-10.04c2.13-.5,4.23-.91,6.29-1.23,2.05-.32,4.1-.48,6.13-.48,4.27,0,8.07,.79,11.42,2.38,3.35,1.59,6,3.83,7.95,6.73,1.96,2.9,2.94,6.36,2.94,10.38v17.91h-91.65Zm65.26,17.47v-9.74h12.86v9.74h-12.86Zm26.39-17.47v-10.85h44.93v10.85h-44.93Zm44.93,0v-10.85c.25,0,.47,.12,.67,.37,.2,.25,.35,.61,.45,1.08s.19,1.04,.26,1.71c.07,.67,.11,1.43,.11,2.27s-.04,1.6-.11,2.27c-.07,.67-.16,1.24-.26,1.71-.1,.47-.25,.83-.45,1.08-.19,.25-.42,.37-.67,.37Z"/>
      <path className="cls-2" d="M430.82,129.3c-.25,0-.47-.12-.67-.37-.19-.25-.34-.61-.44-1.08-.1-.47-.19-1.04-.26-1.71-.08-.67-.11-1.43-.11-2.27,0-1.14,.05-2.11,.15-2.9,.1-.79,.26-1.42,.48-1.86,.22-.45,.51-.67,.85-.67v10.85Zm0,0v-10.85h32.78l-2.45,2.08v-19.55l2.15,1.78h-7.14c-1.74,0-3.1,.24-4.09,.71-.99,.47-1.71,1.28-2.15,2.41-.45,1.14-.67,2.73-.67,4.76,0,2.33,.22,4.04,.67,5.13,.45,1.09,1.16,1.81,2.15,2.15,.99,.34,2.35,.52,4.09,.52v10.33c-4.16,0-7.72-.62-10.67-1.86-2.95-1.24-5.19-3.2-6.73-5.87-1.54-2.67-2.31-6.15-2.31-10.41,0-3.97,.77-7.35,2.31-10.15,1.54-2.8,3.78-4.93,6.73-6.39,2.95-1.46,6.5-2.2,10.67-2.2h17.77v37.39h-43.12Zm19.92-44.38v-9.74h12.86v9.74h-12.86Z"/>
    </g>
    <g>
      <path className="cls-2" d="M188.09,63.44V13.11h34.12v10.93h-20.89v12.2h16.66v10.93h-16.66v16.28h-13.23Z"/>
      <path className="cls-2" d="M219.61,63.44l12.12-50.33h21.34l12.19,50.33h-13.3l-2.23-8.32h-15.02l-2.08,8.32h-13.01Zm16.95-18.66h11.6l-4.46-21.19h-2.53l-4.61,21.19Z"/>
      <path className="cls-2" d="M266.74,65.97v-11c1.04,0,1.91-.12,2.6-.37,.69-.25,1.22-.7,1.6-1.34,.37-.65,.63-1.63,.78-2.94,.15-1.31,.22-3.04,.22-5.17V13.11h13.23V52.44c0,3.12-.41,5.59-1.23,7.4-.82,1.81-2,3.16-3.57,4.05-1.56,.89-3.48,1.46-5.76,1.71-2.28,.25-4.91,.38-7.88,.38Z"/>
      <path className="cls-2" d="M292.24,63.44V13.11h20.3c4.41,0,8.08,.51,11,1.52,2.93,1.02,5.11,2.78,6.55,5.28,1.43,2.5,2.15,6.01,2.15,10.52,0,3.62-.57,6.64-1.71,9.07-1.14,2.43-2.85,4.31-5.12,5.65l6.61,18.29h-13.61l-4.98-15.24h-7.96v15.24h-13.23Zm13.23-25.87h7.44c1.44,0,2.59-.3,3.46-.9,.87-.59,1.49-1.42,1.89-2.49,.39-1.06,.59-2.29,.59-3.68,0-2.27-.51-3.99-1.52-5.12-1.02-1.14-2.61-1.71-4.79-1.71h-7.07v13.9Z"/>
      <path className="cls-2" d="M334.39,63.44l12.12-50.33h21.34l12.19,50.33h-13.3l-2.23-8.32h-15.02l-2.08,8.32h-13.01Zm16.95-18.66h11.6l-4.46-21.19h-2.53l-4.61,21.19Z"/>
      <path className="cls-2" d="M380.78,63.44l12.12-50.33h21.34l12.19,50.33h-13.3l-2.23-8.32h-15.02l-2.08,8.32h-13.01Zm16.95-18.66h11.6l-4.46-21.19h-2.53l-4.61,21.19Z"/>
      <path className="cls-2" d="M430.44,63.44V13.11h14.87l14.27,28.55h1.19V13.11h13.23V63.44h-14.87l-14.2-29.44h-1.26v29.44h-13.23Z"/>
    </g>
  </g>
  <g>
    <path className="cls-2" d="M138.66,22.19c0,3.2-1.07,5.83-3.2,8.04-2.2,2.2-4.91,3.27-8.11,3.27s-5.69-1.14-7.89-3.34c-2.27-2.2-3.34-4.91-3.34-7.96s1.07-5.76,3.34-7.96c2.2-2.2,4.84-3.34,7.89-3.34s5.9,1.07,8.11,3.27c2.13,2.13,3.2,4.84,3.2,8.04Z"/>
    <g>
      <path className="cls-2" d="M151.32,50.21c-6.05-5.46-13.86-8.15-23.49-8.15s-17.18,2.77-23.7,8.28c-7.77,6.39-11.55,14.75-11.55,25,0,6.51,1.3,12.69,4.08,18.65h-13.91v.08h-2.23c-.34-.71-1.05-1.26-1.93-1.26-1.18,0-2.06,.97-2.06,2.1s.88,2.1,2.06,2.1c.88,0,1.6-.55,1.93-1.26h2.23v1.93h-5.55c-.34-.71-1.05-1.26-1.93-1.26-1.13,0-2.06,.97-2.06,2.14,0,1.09,.92,2.06,2.06,2.06,.88,0,1.6-.55,1.93-1.26h5.55v1.93h-2.23c-.34-.71-1.05-1.26-1.93-1.26-1.18,0-2.06,.97-2.06,2.14s.88,2.06,2.06,2.06c.88,0,1.6-.5,1.93-1.22h2.23v.29h.04v1.6h-5.8c-.04-.08-.08-.13-.13-.13-.34-.71-1.01-1.09-1.77-1.09-1.18,0-2.1,.97-2.1,2.1s.92,2.1,2.1,2.1c.76,0,1.43-.42,1.68-.97,.08-.08,.17-.17,.21-.29h5.8v1.39l-.04,.04v.46h-2.23c-.34-.71-1.05-1.22-1.93-1.22-1.18,0-2.06,.92-2.06,2.1s.88,2.1,2.06,2.1c.88,0,1.6-.55,1.93-1.26h2.23v1.89h-5.55c-.34-.71-1.05-1.22-1.93-1.22-1.13,0-2.06,.92-2.06,2.1s.92,2.1,2.06,2.1c.88,0,1.6-.5,1.93-1.22h5.55l10.21-.04,47.81-.08c5.04,0,9.41-1.81,13.02-5.34,3.78-3.61,6.01-8.36,6.01-13.74v-24.54c0-8.23-2.82-14.92-8.49-19.96Zm-14.83,41.64c0,1.39-.67,2.14-2.14,2.14h-3.28c-10.42,0-15.59-5.55-15.59-16.55,0-4.71,1.05-8.57,3.36-11.51,2.31-2.9,5.21-4.37,8.86-4.37,2.4,0,4.5,.92,6.18,2.56,1.76,1.72,2.6,3.87,2.6,6.43v21.3Z"/>
      <path className="cls-2" d="M71.29,107.3c-.84,0-1.55,.5-1.93,1.22h-9.2v-1.89h5.92c.34,.71,1.05,1.26,1.89,1.26,1.18,0,2.14-.92,2.14-2.1s-.97-2.1-2.14-2.1c-.84,0-1.55,.5-1.89,1.22h-5.92v-1.89h2.27c.34,.71,1.05,1.22,1.89,1.22,1.18,0,2.14-.92,2.14-2.06s-.97-2.14-2.14-2.14c-.84,0-1.56,.55-1.89,1.26h-2.27v-1.93h5.92c.34,.71,1.05,1.26,1.89,1.26,1.18,0,2.14-.97,2.14-2.06,0-1.18-.97-2.14-2.14-2.14-.84,0-1.55,.55-1.89,1.26h-5.92v-1.93h9.2c.38,.71,1.09,1.26,1.93,1.26,1.18,0,2.1-.97,2.1-2.1s-.92-2.1-2.1-2.1c-.84,0-1.55,.55-1.93,1.26h-9.2c-.25-.04-.46-.04-.67-.08-2.44-.29-4.83-.67-6.68-1.97-.88-.59-1.64-1.39-2.23-2.52-.13-.21-.25-.46-.38-.71-.97-2.39-.84-4.96-.84-7.52v-15.5h-4.58c-10.38,0-18.78,8.4-18.78,18.78,0,7.94,2.73,14.79,8.02,20.55,4.45,4.62,11.81,7.39,18.78,8.4,2.02,.34,3.95,.46,5.8,.46h1.55v-.04h5.92c.34,.71,1.05,1.22,1.89,1.22,1.18,0,2.14-.92,2.14-2.1s-.97-2.1-2.14-2.1c-.84,0-1.55,.5-1.89,1.22h-5.92v-1.89h9.2c.38,.71,1.09,1.26,1.93,1.26,1.18,0,2.1-.92,2.1-2.1s-.92-2.1-2.1-2.1Z"/>
      <g>
        <path className="cls-3" d="M137.03,10.88c.28,.21,.64,.5,.93,.78,2.84,2.77,4.27,6.33,4.27,10.52s-1.42,7.68-4.27,10.52c-.29,.28-.64,.57-.93,.78h12.09c6.26,0,11.31-5.05,11.31-11.31V10.88h-23.4Z"/>
        <path className="cls-1" d="M76.54,94.92c0,1.13,.88,2.1,2.06,2.1,.88,0,1.6-.55,1.93-1.26h2.23v1.93h-5.55c-.34-.71-1.05-1.26-1.93-1.26-1.13,0-2.06,.97-2.06,2.14,0,1.09,.92,2.06,2.06,2.06,.88,0,1.6-.55,1.93-1.26h5.55v1.93h-2.23c-.34-.71-1.05-1.26-1.93-1.26-1.18,0-2.06,.97-2.06,2.14s.88,2.06,2.06,2.06c.88,0,1.6-.5,1.93-1.22h2.23v.29h.04v1.6h-5.8c-.04-.08-.08-.13-.13-.13-.34-.71-1.01-1.09-1.76-1.09-1.18,0-2.1,.97-2.1,2.1s.92,2.1,2.1,2.1c.76,0,1.43-.42,1.68-.97,.08-.08,.17-.17,.21-.29h5.8v1.39l-.04,.04v.46h-2.23c-.34-.71-1.05-1.22-1.93-1.22-1.18,0-2.06,.92-2.06,2.1s.88,2.1,2.06,2.1c.88,0,1.6-.55,1.93-1.26h2.23v1.89h-5.55c-.34-.71-1.05-1.22-1.93-1.22-1.13,0-2.06,.92-2.06,2.1s.92,2.1,2.06,2.1c.88,0,1.6-.5,1.93-1.22h5.55v12.23c0,.25-.08,.5-.08,.76-.42,12.06-10.29,21.85-22.52,21.85v-34.83h5.92c.34,.71,1.05,1.22,1.89,1.22,1.18,0,2.14-.92,2.14-2.1s-.97-2.1-2.14-2.1c-.84,0-1.56,.5-1.89,1.22h-5.92v-1.89h9.2c.38,.71,1.09,1.26,1.93,1.26,1.18,0,2.1-.92,2.1-2.1s-.92-2.1-2.1-2.1c-.84,0-1.56,.5-1.93,1.22h-9.2v-1.89h5.92c.34,.71,1.05,1.26,1.89,1.26,1.18,0,2.14-.92,2.14-2.1s-.97-2.1-2.14-2.1c-.84,0-1.56,.5-1.89,1.22h-5.92v-1.89h2.27c.34,.71,1.05,1.22,1.89,1.22,1.18,0,2.14-.92,2.14-2.06s-.97-2.14-2.14-2.14c-.84,0-1.55,.55-1.89,1.26h-2.27v-1.93h5.92c.34,.71,1.05,1.26,1.89,1.26,1.18,0,2.14-.97,2.14-2.06,0-1.18-.97-2.14-2.14-2.14-.84,0-1.56,.55-1.89,1.26h-5.92v-1.93h9.2c.38,.71,1.09,1.26,1.93,1.26,1.18,0,2.1-.97,2.1-2.1s-.92-2.1-2.1-2.1c-.84,0-1.56,.55-1.93,1.26h-9.2V24.08c0-7.31,5.92-13.23,13.24-13.23h44.53c-.38,.13-.71,.5-1.01,.8-2.9,2.9-4.37,6.47-4.37,10.5s1.47,7.6,4.37,10.46c.29,.25,.63,.63,1.01,.88h-35.17v60.58h-2.23c-.34-.71-1.05-1.26-1.93-1.26-1.18,0-2.06,.97-2.06,2.1Z"/>
      </g>
    </g>
  </g>
</svg>