<?xml version="1.0" encoding="UTF-8"?>
<svg id="Layer_1" data-name="Layer 1" xmlns="http://www.w3.org/2000/svg" xmlns:xlink="http://www.w3.org/1999/xlink" viewBox="0 0 180 180">
  <defs>
    <style>
      .cls-1 {
        fill: url(#linear-gradient-5);
      }

      .cls-2 {
        fill: url(#linear-gradient-4);
      }

      .cls-3 {
        fill: url(#linear-gradient-3);
      }

      .cls-4 {
        fill: url(#linear-gradient-2);
      }

      .cls-5 {
        fill: url(#linear-gradient);
      }
    </style>
    <linearGradient id="linear-gradient" x1="208.86" y1="80.22" x2="-37.22" y2="-65.44" gradientUnits="userSpaceOnUse">
      <stop offset="0" stop-color="#00294f"/>
      <stop offset="1" stop-color="#0329a1"/>
    </linearGradient>
    <linearGradient id="linear-gradient-2" x1="177.89" y1="132.55" x2="-68.19" y2="-13.11" gradientUnits="userSpaceOnUse">
      <stop offset="0" stop-color="#00294f"/>
      <stop offset="1" stop-color="#0329a1"/>
    </linearGradient>
    <linearGradient id="linear-gradient-3" x1="157.25" y1="167.41" x2="-88.83" y2="21.75" gradientUnits="userSpaceOnUse">
      <stop offset="0" stop-color="#00294f"/>
      <stop offset="1" stop-color="#0329a1"/>
    </linearGradient>
    <linearGradient id="linear-gradient-4" x1="157.92" y1="25.22" x2="2.33" y2="80.25" gradientUnits="userSpaceOnUse">
      <stop offset="0" stop-color="#18b1d0"/>
      <stop offset="1" stop-color="#19c8c3"/>
    </linearGradient>
    <linearGradient id="linear-gradient-5" x1="167.8" y1="53.15" x2="12.21" y2="108.18" xlink:href="#linear-gradient-4"/>
  </defs>
  <path class="cls-5" d="M136.76,30.74c0,3.29-1.1,6-3.29,8.27-2.27,2.27-5.05,3.36-8.34,3.36s-5.85-1.17-8.12-3.44c-2.34-2.27-3.44-5.05-3.44-8.19s1.1-5.93,3.44-8.19c2.27-2.27,4.98-3.44,8.12-3.44s6.07,1.1,8.34,3.37c2.19,2.19,3.29,4.97,3.29,8.27Z"/>
  <g>
    <path class="cls-4" d="M149.78,59.56c-6.22-5.62-14.26-8.38-24.16-8.38s-17.68,2.85-24.38,8.51c-8,6.57-11.89,15.17-11.89,25.72,0,6.7,1.34,13.05,4.19,19.19h-14.31v.09h-2.29c-.35-.73-1.08-1.3-1.99-1.3-1.21,0-2.12.99-2.12,2.16s.91,2.16,2.12,2.16c.91,0,1.64-.56,1.99-1.3h2.29v1.99h-5.71c-.35-.73-1.08-1.3-1.99-1.3-1.17,0-2.12.99-2.12,2.2,0,1.12.95,2.12,2.12,2.12.91,0,1.64-.56,1.99-1.3h5.71v1.99h-2.29c-.35-.73-1.08-1.3-1.99-1.3-1.21,0-2.12.99-2.12,2.2s.91,2.12,2.12,2.12c.91,0,1.64-.52,1.99-1.25h2.29v.3h.04v1.64h-5.96c-.04-.09-.09-.13-.13-.13-.35-.73-1.04-1.12-1.82-1.12-1.21,0-2.16.99-2.16,2.16s.95,2.16,2.16,2.16c.78,0,1.47-.43,1.73-.99.09-.09.17-.17.22-.3h5.96v1.43l-.04.04v.48h-2.29c-.35-.73-1.08-1.25-1.99-1.25-1.21,0-2.12.95-2.12,2.16s.91,2.16,2.12,2.16c.91,0,1.64-.56,1.99-1.3h2.29v1.94h-5.71c-.35-.73-1.08-1.25-1.99-1.25-1.17,0-2.12.95-2.12,2.16s.95,2.16,2.12,2.16c.91,0,1.64-.52,1.99-1.25h5.71l10.5-.04,49.19-.09c5.19,0,9.68-1.86,13.4-5.49,3.89-3.72,6.18-8.6,6.18-14.13v-25.24c0-8.47-2.9-15.34-8.73-20.53ZM134.53,102.39c0,1.43-.69,2.2-2.2,2.2h-3.37c-10.72,0-16.03-5.7-16.03-17.03,0-4.84,1.08-8.82,3.46-11.84,2.38-2.98,5.36-4.49,9.12-4.49,2.46,0,4.62.95,6.35,2.64,1.82,1.77,2.68,3.98,2.68,6.61v21.91Z"/>
    <path class="cls-3" d="M67.45,118.3c-.86,0-1.6.52-1.99,1.25h-9.47v-1.94h6.09c.35.73,1.08,1.3,1.94,1.3,1.21,0,2.2-.95,2.2-2.16s-.99-2.16-2.2-2.16c-.86,0-1.6.52-1.94,1.25h-6.09v-1.94h2.33c.35.73,1.08,1.25,1.95,1.25,1.21,0,2.2-.95,2.2-2.12s-.99-2.2-2.2-2.2c-.86,0-1.6.56-1.95,1.3h-2.33v-1.99h6.09c.35.73,1.08,1.3,1.94,1.3,1.21,0,2.2-.99,2.2-2.12,0-1.21-.99-2.2-2.2-2.2-.86,0-1.6.56-1.94,1.3h-6.09v-1.99h9.47c.39.73,1.12,1.3,1.99,1.3,1.21,0,2.16-.99,2.16-2.16s-.95-2.16-2.16-2.16c-.86,0-1.6.56-1.99,1.3h-9.47c-.26-.04-.48-.04-.69-.09-2.51-.3-4.97-.69-6.87-2.03-.91-.61-1.69-1.43-2.29-2.59-.13-.22-.26-.48-.39-.73-.99-2.46-.86-5.1-.86-7.74v-15.95h-4.71c-10.68,0-19.32,8.64-19.32,19.32,0,8.17,2.81,15.21,8.26,21.13,4.58,4.75,12.14,7.61,19.32,8.64,2.08.35,4.06.48,5.96.48h1.6v-.04h6.09c.35.73,1.08,1.25,1.94,1.25,1.21,0,2.2-.95,2.2-2.16s-.99-2.16-2.2-2.16c-.86,0-1.6.52-1.94,1.25h-6.09v-1.94h9.47c.39.73,1.12,1.3,1.99,1.3,1.21,0,2.16-.95,2.16-2.16s-.95-2.16-2.16-2.16Z"/>
    <g>
      <path class="cls-2" d="M135.08,19.11c.29.22.66.51.95.81,2.92,2.85,4.39,6.51,4.39,10.83s-1.46,7.9-4.39,10.83c-.29.29-.66.59-.95.8h12.44c6.44,0,11.63-5.19,11.63-11.63v-11.63h-24.07Z"/>
      <path class="cls-1" d="M72.85,105.56c0,1.17.91,2.16,2.12,2.16.91,0,1.64-.56,1.99-1.3h2.29v1.99h-5.71c-.35-.73-1.08-1.3-1.99-1.3-1.17,0-2.12.99-2.12,2.2,0,1.12.95,2.12,2.12,2.12.91,0,1.64-.56,1.99-1.3h5.71v1.99h-2.29c-.35-.73-1.08-1.3-1.99-1.3-1.21,0-2.12.99-2.12,2.2s.91,2.12,2.12,2.12c.91,0,1.64-.52,1.99-1.25h2.29v.3h.04v1.64h-5.96c-.04-.09-.09-.13-.13-.13-.35-.73-1.04-1.12-1.81-1.12-1.21,0-2.16.99-2.16,2.16s.95,2.16,2.16,2.16c.78,0,1.47-.43,1.73-.99.09-.09.17-.17.22-.3h5.96v1.43l-.04.04v.48h-2.29c-.35-.73-1.08-1.25-1.99-1.25-1.21,0-2.12.95-2.12,2.16s.91,2.16,2.12,2.16c.91,0,1.64-.56,1.99-1.3h2.29v1.94h-5.71c-.35-.73-1.08-1.25-1.99-1.25-1.17,0-2.12.95-2.12,2.16s.95,2.16,2.12,2.16c.91,0,1.64-.52,1.99-1.25h5.71v12.58c0,.26-.09.52-.09.78-.43,12.4-10.59,22.47-23.17,22.47v-35.83h6.09c.35.73,1.08,1.25,1.95,1.25,1.21,0,2.2-.95,2.2-2.16s-.99-2.16-2.2-2.16c-.86,0-1.6.52-1.95,1.25h-6.09v-1.94h9.47c.39.73,1.12,1.3,1.99,1.3,1.21,0,2.16-.95,2.16-2.16s-.95-2.16-2.16-2.16c-.86,0-1.6.52-1.99,1.25h-9.47v-1.94h6.09c.35.73,1.08,1.3,1.95,1.3,1.21,0,2.2-.95,2.2-2.16s-.99-2.16-2.2-2.16c-.86,0-1.6.52-1.95,1.25h-6.09v-1.94h2.33c.35.73,1.08,1.25,1.94,1.25,1.21,0,2.2-.95,2.2-2.12s-.99-2.2-2.2-2.2c-.86,0-1.6.56-1.94,1.3h-2.33v-1.99h6.09c.35.73,1.08,1.3,1.95,1.3,1.21,0,2.2-.99,2.2-2.12,0-1.21-.99-2.2-2.2-2.2-.86,0-1.6.56-1.95,1.3h-6.09v-1.99h9.47c.39.73,1.12,1.3,1.99,1.3,1.21,0,2.16-.99,2.16-2.16s-.95-2.16-2.16-2.16c-.86,0-1.6.56-1.99,1.3h-9.47V32.69c0-7.52,6.09-13.61,13.62-13.61h45.81c-.39.13-.73.52-1.04.82-2.98,2.98-4.5,6.66-4.5,10.81s1.51,7.82,4.5,10.76c.3.26.65.65,1.04.91h-36.18v62.32h-2.29c-.35-.73-1.08-1.3-1.99-1.3-1.21,0-2.12.99-2.12,2.16Z"/>
    </g>
  </g>
</svg>